<svg width="27" height="27" viewBox="0 0 27 27" fill="none" xmlns="http://www.w3.org/2000/svg">
<g id="ant-design:heart-outlined">
<path id="Vector" d="M24.3369 7.47774C23.9835 6.6594 23.4739 5.91783 22.8366 5.29453C22.1989 4.66938 21.447 4.17259 20.6218 3.83116C19.7661 3.47571 18.8483 3.29377 17.9218 3.2959C16.6219 3.2959 15.3536 3.65186 14.2515 4.32422C13.9878 4.48506 13.7373 4.66172 13.5 4.8542C13.2627 4.66172 13.0122 4.48506 12.7485 4.32422C11.6464 3.65186 10.3781 3.2959 9.07822 3.2959C8.14219 3.2959 7.23516 3.4752 6.37822 3.83116C5.55029 4.17393 4.8041 4.667 4.16338 5.29453C3.52528 5.91712 3.01556 6.65887 2.66309 7.47774C2.29658 8.3294 2.10938 9.23379 2.10938 10.1646C2.10938 11.0426 2.28867 11.9575 2.64463 12.8883C2.94258 13.6661 3.36973 14.473 3.91553 15.2877C4.78037 16.5771 5.96953 17.9218 7.44609 19.285C9.89297 21.5446 12.3161 23.1056 12.4189 23.1689L13.0438 23.5696C13.3207 23.7463 13.6767 23.7463 13.9535 23.5696L14.5784 23.1689C14.6813 23.1029 17.1018 21.5446 19.5513 19.285C21.0278 17.9218 22.217 16.5771 23.0818 15.2877C23.6276 14.473 24.0574 13.6661 24.3527 12.8883C24.7087 11.9575 24.888 11.0426 24.888 10.1646C24.8906 9.23379 24.7034 8.3294 24.3369 7.47774ZM13.5 21.484C13.5 21.484 4.11328 15.4696 4.11328 10.1646C4.11328 7.47774 6.33603 5.29981 9.07822 5.29981C11.0057 5.29981 12.6773 6.37559 13.5 7.94707C14.3227 6.37559 15.9943 5.29981 17.9218 5.29981C20.664 5.29981 22.8867 7.47774 22.8867 10.1646C22.8867 15.4696 13.5 21.484 13.5 21.484Z" fill="black" fill-opacity="0.73"/>
</g>
</svg>
